# xmcd
#
# Track frame offsets:
#	150
#	17348
#	36224
#	53046
#	72768
#	89147
#	103987
#	120109
#	141454
#	158589
#	176306
#	194634
#	212312
#	228290
#	246199
#	262610
#	277387
#	291158
#	308354
#	328203
#
# Disc length: 4600 seconds
#
# Revision: 0
# Processed by: cddbd v1.5.1PL0 Copyright (c) Steve Scherf et al.
# Submitted via: audiograbber 1.81.03
#
DISCID=1811f614
DTITLE=Pandora - All Hits
DYEAR=2005
DGENRE=Techno
TTITLE0=Don't You Know
TTITLE1=The Naked Sun
TTITLE2=Love Is A Stranger
TTITLE3=Don't Let Me
TTITLE4=Tell The World
TTITLE5=Shout It Out
TTITLE6=Work
TTITLE7=Why
TTITLE8=If You Want It
TTITLE9=This Could Be Heaven
TTITLE10=The Love Of My Life
TTITLE11=Anything
TTITLE12=Don't Worry
TTITLE13=It's Allright
TTITLE14=When I'm Over You
TTITLE15=Any Time Of Season (feat George Gole)
TTITLE16=Let It Go
TTITLE17=Stronger
TTITLE18=Rely
TTITLE19=Smile'N'Shine
EXTD=
EXTT0=
EXTT1=
EXTT2=
EXTT3=
EXTT4=
EXTT5=
EXTT6=
EXTT7=
EXTT8=
EXTT9=
EXTT10=
EXTT11=
EXTT12=
EXTT13=
EXTT14=
EXTT15=
EXTT16=
EXTT17=
EXTT18=
EXTT19=
PLAYORDER=
